<?xml version="1.0" standalone="no"?>
<!DOCTYPE svg PUBLIC "-//W3C//DTD SVG 20010904//EN"
 "http://www.w3.org/TR/2001/REC-SVG-20010904/DTD/svg10.dtd">
<svg version="1.0" xmlns="http://www.w3.org/2000/svg"
 width="200.000000pt" height="200.000000pt" viewBox="0 0 500.000000 500.000000"
 preserveAspectRatio="xMidYMid meet">

<g transform="translate(0.000000,500.000000) scale(0.100000,-0.100000)"
fill="#000000" stroke="none">
<path d="M2873 3675 c-39 -23 -89 -98 -81 -121 5 -16 -12 -15 -37 2 -13 9 -28
13 -33 10 -6 -3 -35 6 -67 20 -45 21 -65 25 -101 19 -24 -3 -44 -10 -44 -15 0
-10 110 -80 126 -80 16 0 44 -28 44 -44 0 -6 -20 -17 -45 -24 -66 -17 -131
-85 -140 -145 -11 -72 -4 -88 21 -46 31 51 90 95 108 80 10 -9 16 -9 21 -1 4
6 14 9 22 6 8 -3 28 1 46 10 30 16 30 16 -12 -32 -56 -64 -69 -91 -77 -160 -9
-69 10 -68 19 1 12 81 53 142 120 177 54 27 43 43 -29 41 -112 -4 -130 -8
-172 -42 -47 -37 -53 -30 -19 20 30 45 88 76 159 84 32 4 58 11 58 16 0 5 -13
15 -29 23 -16 9 -31 22 -34 31 -4 8 -14 15 -24 15 -25 0 -123 51 -117 61 8 13
76 -2 119 -26 22 -12 46 -20 53 -17 8 2 31 -12 51 -32 21 -20 40 -34 43 -31 3
4 4 32 1 63 -5 55 -4 58 32 92 36 33 37 33 30 10 -4 -14 -8 -43 -10 -65 -2
-22 -10 -69 -20 -103 -9 -35 -14 -66 -11 -70 4 -3 20 9 37 26 66 68 162 64
232 -9 20 -22 37 -50 37 -62 0 -18 -4 -16 -25 14 -24 36 -43 49 -72 49 -9 0
-13 -6 -10 -14 4 -11 -3 -9 -28 5 -36 22 -65 18 -45 -6 8 -9 3 -14 -20 -19
-39 -7 -80 -48 -80 -78 0 -13 6 -35 14 -50 8 -15 12 -36 9 -48 -3 -11 0 -26 6
-34 7 -8 11 -18 10 -22 -4 -21 3 -36 32 -69 36 -41 20 -47 -32 -12 -45 29 -68
79 -76 161 -6 70 -16 82 -35 41 -7 -16 -17 -24 -26 -20 -8 3 -16 -3 -19 -15
-3 -11 -14 -20 -24 -20 -18 0 -69 -73 -69 -98 0 -22 17 -12 29 16 7 15 18 36
26 46 12 16 17 17 30 6 14 -11 17 -10 22 9 4 17 8 19 14 9 5 -7 14 -13 21 -13
7 0 18 -21 25 -46 19 -67 69 -111 132 -117 31 -3 51 -1 51 6 0 5 -19 29 -42
53 -35 35 -40 44 -25 47 24 5 21 17 -10 37 l-27 18 24 9 23 9 -28 29 c-23 24
-25 30 -11 30 53 0 164 -98 206 -180 26 -51 50 -145 50 -192 0 -13 -8 -18 -26
-18 -32 0 -23 -16 19 -34 56 -23 144 -104 189 -171 23 -36 44 -61 46 -56 6 19
-42 96 -94 151 l-54 57 0 67 c0 137 -53 268 -143 354 -31 28 -57 52 -59 52 -2
0 -34 11 -73 24 -69 23 -69 24 -42 35 38 15 105 3 120 -20 17 -28 27 -23 27
12 0 42 18 33 47 -24 14 -26 29 -47 33 -47 14 0 20 46 9 83 -28 101 -167 169
-249 122 -47 -27 -51 -19 -26 49 16 42 21 67 14 74 -6 6 -4 20 6 40 30 58 21
64 -41 27z m152 -395 c74 -36 133 -102 164 -185 25 -67 30 -91 38 -184 6 -73
6 -73 -15 -62 -18 9 -22 21 -22 59 -1 152 -101 307 -242 376 -53 25 -53 25
-19 26 18 0 62 -14 96 -30z"/>
<path d="M1953 3508 c-11 -13 -27 -36 -34 -52 -11 -23 -21 -29 -53 -32 -40 -3
-65 -18 -53 -30 4 -4 17 -2 30 3 13 6 35 9 49 6 22 -4 29 2 59 54 42 72 43 73
32 73 -5 0 -19 -10 -30 -22z"/>
<path d="M2323 3400 c-25 -36 -32 -40 -73 -40 -25 0 -52 -5 -60 -10 -18 -11
-21 -11 55 -15 l60 -3 33 49 c34 53 37 59 23 59 -5 0 -22 -18 -38 -40z"/>
<path d="M2640 3085 c-6 -8 -8 -20 -4 -26 5 -9 11 -7 21 6 23 33 9 51 -17 20z"/>
<path d="M1889 2876 c-31 -12 -72 -32 -90 -44 -56 -34 -137 -126 -169 -191
-40 -81 -37 -112 3 -35 18 33 45 79 62 101 41 56 149 134 218 158 31 10 57 23
57 27 0 13 -22 9 -81 -16z"/>
<path d="M2225 2443 c4 -16 13 -63 21 -107 14 -79 30 -114 46 -98 9 9 77 215
72 221 -4 4 -30 -58 -51 -122 -8 -26 -19 -50 -23 -52 -5 -3 -12 25 -15 62 -8
70 -27 123 -46 123 -7 0 -9 -10 -4 -27z"/>
<path d="M1745 2450 l-30 -8 29 -1 29 -1 -7 -111 c-6 -89 -5 -110 6 -107 16 5
36 94 37 166 1 51 2 52 31 52 17 0 30 5 30 10 0 11 -80 11 -125 0z"/>
<path d="M1960 2435 c-10 -12 -16 -13 -27 -4 -23 20 -30 -1 -38 -103 -6 -92
-6 -98 12 -98 15 0 19 8 21 37 4 61 19 62 43 5 12 -29 28 -52 35 -52 19 0 18
9 -6 55 -26 50 -25 57 5 85 14 13 25 33 25 45 0 41 -45 60 -70 30z m30 -28 c0
-25 -26 -67 -41 -67 -12 0 -12 46 1 71 15 26 40 24 40 -4z"/>
<path d="M2105 2393 c-15 -32 -33 -76 -40 -98 -7 -22 -16 -48 -20 -57 -15 -37
13 -16 30 22 10 22 21 40 26 40 4 0 14 3 23 6 12 5 16 0 16 -18 0 -36 20 -88
33 -88 22 0 9 209 -15 238 -18 21 -26 14 -53 -45z m35 -32 c0 -30 -4 -40 -20
-44 -24 -6 -25 2 -6 48 19 45 26 44 26 -4z"/>
<path d="M2550 2438 c0 -7 -7 -58 -15 -113 -7 -55 -12 -101 -11 -103 7 -7 106
11 106 19 0 5 -16 9 -36 9 -33 0 -36 2 -30 23 3 12 9 57 13 100 5 67 4 77 -11
77 -9 0 -16 -6 -16 -12z"/>
<path d="M2687 2428 c-3 -13 -9 -54 -12 -93 -4 -38 -11 -78 -16 -87 -13 -24 3
-30 61 -22 57 8 68 24 15 24 l-35 0 7 58 c10 86 9 135 -3 139 -7 2 -14 -6 -17
-19z"/>
<path d="M3063 2435 c-13 -9 -24 -11 -28 -6 -15 25 -30 -4 -34 -67 -8 -122 -7
-126 12 -130 13 -3 17 3 18 25 0 15 4 37 9 48 7 17 11 13 31 -32 15 -36 29
-53 41 -53 16 0 15 6 -10 56 -25 51 -26 56 -9 65 15 9 47 58 47 73 0 10 -32
36 -43 36 -7 0 -22 -7 -34 -15z m29 -30 c-5 -26 -30 -65 -42 -65 -13 0 -13 32
0 65 12 32 47 31 42 0z"/>
<path d="M2401 2373 c-8 -151 -10 -138 29 -135 46 4 70 11 70 22 0 4 -19 6
-41 3 -39 -6 -41 -5 -35 16 3 11 9 30 12 41 3 11 14 20 25 20 10 0 19 5 19 11
0 6 -9 9 -19 6 -16 -4 -21 2 -26 24 -8 37 -3 44 36 47 54 4 46 12 -12 12 l-55
0 -3 -67z"/>
<path d="M2845 2416 c-60 -60 -46 -196 20 -196 38 0 73 36 83 86 12 54 6 81
-21 112 -26 28 -52 28 -82 -2z m86 -18 c31 -57 -25 -192 -65 -158 -24 19 -21
107 4 148 23 37 44 41 61 10z"/>
<path d="M3179 2438 c0 -2 -2 -37 -5 -78 -3 -41 -7 -81 -9 -87 -2 -7 -2 -19 1
-27 5 -12 21 -13 82 0 36 7 25 23 -13 17 -32 -5 -35 -4 -35 20 0 38 10 57 30
57 11 0 22 5 26 11 5 8 -1 10 -19 7 -22 -4 -26 -1 -29 23 -6 36 0 43 37 48 49
5 42 11 -13 11 -29 0 -52 -1 -53 -2z"/>
<path d="M1624 2345 c-8 -21 2 -45 19 -45 8 0 20 7 27 15 10 12 10 18 0 30 -7
8 -19 15 -27 15 -7 0 -16 -7 -19 -15z"/>
<path d="M3387 2353 c-13 -12 -7 -44 9 -50 20 -7 45 22 37 43 -5 14 -35 19
-46 7z"/>
<path d="M1637 2009 c-20 -17 -37 -35 -37 -41 0 -6 8 -4 19 6 10 9 25 14 35
10 19 -7 19 -9 6 -35 -6 -10 -7 -19 -3 -19 9 0 43 78 43 98 0 20 -24 14 -63
-19z m53 14 c-1 -18 -19 -35 -29 -28 -9 5 -7 11 6 21 21 16 23 16 23 7z"/>
<path d="M3187 1973 c-11 -10 -8 -51 3 -58 6 -4 17 -2 25 5 11 9 16 7 24 -8
12 -23 5 -33 -17 -25 -10 4 -13 2 -8 -5 10 -17 36 -15 42 3 3 8 -4 32 -17 55
-22 38 -37 48 -52 33z m23 -30 c0 -20 -3 -24 -11 -16 -7 7 -9 19 -6 27 10 24
17 19 17 -11z"/>
<path d="M1800 1940 c-6 -12 -14 -19 -17 -16 -13 12 -44 -16 -41 -37 6 -39 32
-30 56 19 23 46 24 76 2 34z m-20 -44 c0 -8 -4 -17 -9 -21 -12 -7 -24 12 -16
25 9 15 25 12 25 -4z"/>
<path d="M2964 1875 c8 -19 20 -43 26 -52 9 -15 10 -14 4 7 -8 30 -33 80 -39
80 -3 0 1 -16 9 -35z"/>
<path d="M3060 1893 c0 -22 18 -43 38 -43 9 0 12 9 10 28 -4 33 -48 47 -48 15z
m37 -8 c8 -22 -6 -33 -17 -15 -13 20 -12 30 0 30 6 0 13 -7 17 -15z"/>
<path d="M1871 1846 l-1 -39 25 23 c14 13 25 26 25 29 0 3 -5 0 -12 -7 -18
-18 -26 -15 -31 11 -2 13 -5 6 -6 -17z"/>
<path d="M2835 1838 c9 -48 24 -78 39 -78 22 0 38 27 31 50 -5 17 -13 21 -32
17 -18 -3 -27 1 -34 17 -8 18 -9 17 -4 -6z m62 -34 c8 -21 -13 -42 -28 -27
-13 13 -5 43 11 43 6 0 13 -7 17 -16z"/>
<path d="M1994 1816 c-9 -24 0 -50 19 -54 9 -2 17 1 17 7 0 6 -7 8 -15 5 -8
-4 -15 -1 -15 5 0 6 9 11 21 11 14 0 19 5 17 17 -4 23 -36 29 -44 9z m36 -6
c0 -5 -7 -10 -16 -10 -8 0 -12 5 -9 10 3 6 10 10 16 10 5 0 9 -4 9 -10z"/>
<path d="M2273 1806 c-5 -8 -7 -35 -5 -60 3 -35 8 -46 21 -46 12 0 13 2 3 9
-10 6 -12 23 -8 60 5 53 3 61 -11 37z"/>
<path d="M2120 1790 c0 -8 -3 -26 -6 -40 -6 -25 -6 -24 21 5 l26 30 -4 -33
c-2 -18 0 -29 4 -25 4 4 9 19 11 33 2 19 -1 25 -17 25 -11 0 -23 5 -27 10 -5
6 -8 4 -8 -5z"/>
<path d="M2633 1764 c-7 -20 8 -48 29 -52 9 -2 18 5 22 14 5 14 4 15 -9 4 -9
-7 -18 -10 -22 -6 -4 3 2 12 12 20 10 7 15 18 11 24 -10 17 -36 15 -43 -4z
m32 -4 c3 -5 -1 -10 -10 -10 -9 0 -13 5 -10 10 3 6 8 10 10 10 2 0 7 -4 10
-10z"/>
<path d="M2510 1733 c0 -18 4 -33 9 -33 5 0 7 9 4 20 -4 14 1 26 13 35 18 13
18 14 -3 12 -19 -1 -23 -7 -23 -34z"/>
<path d="M2381 1733 c0 -17 4 -35 11 -39 14 -9 38 23 37 50 -1 18 -2 18 -8 -3
-9 -35 -29 -37 -34 -4 -4 27 -4 27 -6 -4z"/>
</g>
</svg>
